<svg width="369" height="317" viewBox="0 0 369 317" fill="none" xmlns="http://www.w3.org/2000/svg">
<path d="M202.888 260.945C130.768 280.269 73.092 267.73 53.7674 195.61C34.4429 123.49 83.866 76.4753 155.986 57.1507C228.106 37.8262 295.613 53.5093 314.938 125.63C334.262 197.75 275.009 241.62 202.888 260.945Z" fill="#D89CF6"/>
<g filter="url(#filter0_d)">
<path d="M204.292 273.141C121.048 294.06 54.9777 278.613 34.0586 195.368C13.1396 112.124 70.7915 58.9701 154.036 38.051C237.28 17.132 314.594 36.3694 335.513 119.614C356.432 202.858 287.537 252.222 204.292 273.141Z" fill="#D89CF6"/>
</g>
<g filter="url(#filter1_bd)">
<path d="M173.392 241.274C83.1575 243.88 50.4304 222.623 48.6926 162.449C46.9548 102.275 87.2869 75.1909 177.521 72.5849C267.755 69.979 321.579 90.3768 323.317 150.551C325.055 210.725 263.626 238.668 173.392 241.274Z" fill="#3E206D"/>
</g>
<g filter="url(#filter2_d)">
<path d="M128.767 188.796L113.438 188.313L114.28 161.607L91.5713 160.892L90.7295 187.597L75.3124 187.111L77.3282 123.158L92.7453 123.644L91.9451 149.032L114.654 149.748L115.454 124.36L130.783 124.843L128.767 188.796ZM160.848 190.687C153.556 190.457 147.724 188.104 143.351 183.628C138.979 179.123 136.903 173.386 137.123 166.416L137.162 165.186C137.315 160.326 138.343 156.064 140.247 152.401C142.179 148.74 144.905 145.953 148.424 144.042C151.944 142.101 156.076 141.205 160.82 141.355C167.496 141.565 172.701 143.81 176.436 148.09C180.171 152.341 181.922 158.17 181.688 165.579L181.507 171.333L152.078 170.405C152.521 173.086 153.612 175.217 155.35 176.796C157.088 178.375 159.377 179.209 162.218 179.298C166.903 179.446 170.615 177.922 173.354 174.725L179.866 182.932C177.941 185.422 175.256 187.374 171.811 188.79C168.397 190.177 164.742 190.809 160.848 190.687ZM160.372 152.772C156.038 152.635 153.371 155.424 152.37 161.137L167.304 161.608L167.34 160.466C167.473 158.096 166.931 156.247 165.712 154.919C164.495 153.561 162.715 152.846 160.372 152.772ZM202.515 191.121L187.669 190.653L189.795 123.186L204.641 123.654L202.515 191.121ZM256.532 169.389C256.299 176.768 254.444 182.616 250.967 186.932C247.519 191.22 242.97 193.275 237.318 193.097C232.955 192.959 229.419 191.251 226.708 187.97L226.009 210.152L211.207 209.685L213.281 143.888L227.117 144.324L227.417 148.73C230.369 145.305 234.157 143.666 238.784 143.812C244.64 143.997 249.126 146.307 252.239 150.743C255.354 155.15 256.792 161.131 256.554 168.686L256.532 169.389ZM241.759 168C242.025 159.567 239.698 155.272 234.778 155.117C231.265 155.007 228.882 156.192 227.632 158.673L227.042 177.385C228.247 180.061 230.577 181.453 234.033 181.562C238.747 181.711 241.306 177.717 241.709 169.581L241.759 168ZM292.184 159.785L287.32 159.28C282.664 159.133 279.631 160.503 278.221 163.389L277.273 193.477L262.47 193.01L263.968 145.485L277.848 145.923L278.139 152.043C280.775 147.466 284.318 145.247 288.769 145.388C290.35 145.437 291.721 145.657 292.881 146.045L292.184 159.785Z" fill="#916DD5"/>
</g>
<defs>
<filter id="filter0_d" x="0" y="0" width="368.008" height="316.759" filterUnits="userSpaceOnUse" color-interpolation-filters="sRGB">
<feFlood flood-opacity="0" result="BackgroundImageFix"/>
<feColorMatrix in="SourceAlpha" type="matrix" values="0 0 0 0 0 0 0 0 0 0 0 0 0 0 0 0 0 0 127 0"/>
<feOffset dy="4"/>
<feGaussianBlur stdDeviation="2"/>
<feColorMatrix type="matrix" values="0 0 0 0 0 0 0 0 0 0 0 0 0 0 0 0 0 0 0.25 0"/>
<feBlend mode="normal" in2="BackgroundImageFix" result="effect1_dropShadow"/>
<feBlend mode="normal" in="SourceGraphic" in2="effect1_dropShadow" result="shape"/>
</filter>
<filter id="filter1_bd" x="7.20679" y="29.4429" width="357.603" height="254.364" filterUnits="userSpaceOnUse" color-interpolation-filters="sRGB">
<feFlood flood-opacity="0" result="BackgroundImageFix"/>
<feGaussianBlur in="BackgroundImage" stdDeviation="19.5"/>
<feComposite in2="SourceAlpha" operator="in" result="effect1_backgroundBlur"/>
<feColorMatrix in="SourceAlpha" type="matrix" values="0 0 0 0 0 0 0 0 0 0 0 0 0 0 0 0 0 0 127 0"/>
<feOffset dy="4"/>
<feGaussianBlur stdDeviation="2"/>
<feColorMatrix type="matrix" values="0 0 0 0 0 0 0 0 0 0 0 0 0 0 0 0 0 0 0.25 0"/>
<feBlend mode="normal" in2="effect1_backgroundBlur" result="effect2_dropShadow"/>
<feBlend mode="normal" in="SourceGraphic" in2="effect2_dropShadow" result="shape"/>
</filter>
<filter id="filter2_d" x="71.3123" y="123.158" width="225.569" height="94.993" filterUnits="userSpaceOnUse" color-interpolation-filters="sRGB">
<feFlood flood-opacity="0" result="BackgroundImageFix"/>
<feColorMatrix in="SourceAlpha" type="matrix" values="0 0 0 0 0 0 0 0 0 0 0 0 0 0 0 0 0 0 127 0"/>
<feOffset dy="4"/>
<feGaussianBlur stdDeviation="2"/>
<feColorMatrix type="matrix" values="0 0 0 0 0 0 0 0 0 0 0 0 0 0 0 0 0 0 0.25 0"/>
<feBlend mode="normal" in2="BackgroundImageFix" result="effect1_dropShadow"/>
<feBlend mode="normal" in="SourceGraphic" in2="effect1_dropShadow" result="shape"/>
</filter>
</defs>
</svg>
